<svg xmlns="http://www.w3.org/2000/svg" viewBox="0 0 48 48" fill="none">
  <path d="M33 14L42 8L39 17L35 18Z" fill="#7B5B3A"/>
  <ellipse cx="22" cy="25" rx="16" ry="15" fill="#7B5B3A"/>
  <path d="M10 15C14 8 24 8 30 13C24 10 14 10 10 15Z" fill="#5A4228"/>
  <path d="M28 14C36 18 38 28 34 36C38 30 38 18 32 12Z" fill="#9B7B5A"/>
  <ellipse cx="18" cy="28" rx="9" ry="10" fill="#E8752A"/>
  <circle cx="12" cy="34" r="1.2" fill="white" opacity="0.85"/>
  <circle cx="16" cy="36" r="1.2" fill="white" opacity="0.85"/>
  <circle cx="20" cy="36" r="1.2" fill="white" opacity="0.85"/>
  <circle cx="24" cy="34" r="1.2" fill="white" opacity="0.85"/>
  <circle cx="15" cy="17" r="3.2" fill="white"/>
  <circle cx="15" cy="17" r="2" fill="#1A1A1E"/>
  <circle cx="14.2" cy="16.2" r="0.7" fill="white"/>
  <path d="M7 19L2 18L7 16.5Z" fill="#2D1F14"/>
</svg>
